<svg viewBox="0 0 25 21" width="25px" height="21px" xmlns="http://www.w3.org/2000/svg">
  <defs>
    <radialGradient id="gradient-0" gradientUnits="userSpaceOnUse" cx="12.852" cy="3.959" r="12.5" spreadMethod="pad" gradientTransform="matrix(1.5, 0.0, 0.0, 1.0, -6.5, 0.25)">
      <stop offset="0" style="stop-color: rgba(216, 216, 216, 1)"></stop>
      <stop offset="1" style="stop-color: rgba(165, 165, 165, 1)"></stop>
    </radialGradient>
    <pattern id="pattern-0" x="0" y="0" width="25" height="25" patternUnits="userSpaceOnUse" viewBox="0 0 100 100">
      <rect x="0" y="0" width="50" height="100" style="fill: black;"></rect>
    </pattern>
  </defs>
  <path d="M 0 0 L 25 0 L 25 21 L 0 21 Z M 1 4 L 4 4 L 4 1 L 1 1 Z M 6 4 L 9 4 L 9 1 L 6 1 Z M 11 4 L 14 4 L 14 1 L 11 1 Z M 16 4 L 19 4 L 19 1 L 16 1 Z M 21 4 L 24 4 L 24 1 L 21 1 Z M 1 20 L 4 20 L 4 17 L 1 17 Z M 6 20 L 9 20 L 9 17 L 6 17 Z M 11 20 L 14 20 L 14 17 L 11 17 Z M 16 20 L 19 20 L 19 17 L 16 17 Z M 21 20 L 24 20 L 24 17 L 21 17 Z M 8 15 L 17 15 L 17 6 L 8 6 Z" style="fill: url(#gradient-0); fill-rule: evenodd;"></path>
  <g></g>
</svg>